<svg id="svg" version="1.1" xmlns="http://www.w3.org/2000/svg" xmlns:xlink="http://www.w3.org/1999/xlink" width="400"
    height="400" viewBox="0, 0, 400,400">
    <g id="svgg">
        <path id="path0"
            d="M0.000 200.000 L 0.000 400.000 200.000 400.000 L 400.000 400.000 400.000 200.000 L 400.000 0.000 200.000 0.000 L 0.000 0.000 0.000 200.000 M175.000 116.797 L 175.000 125.000 183.398 125.000 L 191.797 125.000 191.797 133.398 L 191.797 141.797 200.391 141.797 L 208.984 141.797 208.984 133.398 L 208.984 125.000 216.992 125.000 L 225.000 125.000 225.000 116.797 L 225.000 108.594 233.636 108.594 C 241.350 108.594,242.246 108.660,242.034 109.212 C 241.904 109.551,241.797 113.243,241.797 117.415 L 241.797 125.000 233.398 125.000 L 225.000 125.000 225.000 158.008 L 225.000 191.016 233.203 191.016 L 241.406 191.016 241.406 182.617 L 241.406 174.219 249.593 174.219 L 257.780 174.219 257.778 166.113 L 257.776 158.008 265.990 157.902 L 274.203 157.797 274.309 149.699 C 274.367 145.246,274.546 141.646,274.707 141.699 C 274.868 141.753,286.294 141.797,300.098 141.796 L 325.195 141.796 325.075 149.804 L 324.955 157.813 333.418 157.813 C 340.974 157.813,341.855 157.879,341.643 158.430 C 341.513 158.770,341.406 166.241,341.406 175.032 L 341.406 191.016 333.182 191.016 L 324.957 191.016 325.076 199.414 L 325.195 207.813 316.685 207.813 L 308.175 207.813 308.219 215.918 L 308.264 224.023 299.933 224.098 L 291.602 224.173 291.495 231.628 C 291.429 236.324,291.542 239.368,291.802 239.854 C 292.202 240.600,292.076 240.625,287.912 240.625 C 282.696 240.625,283.124 239.784,283.282 249.711 L 283.398 257.032 262.590 257.032 L 241.781 257.031 241.805 273.517 L 241.830 290.002 238.280 289.890 C 233.626 289.743,233.594 289.773,233.594 294.384 L 233.594 298.047 225.391 298.047 L 217.188 298.047 217.188 302.148 L 217.188 306.250 200.832 306.250 L 184.477 306.250 184.235 304.785 C 184.102 303.979,183.991 302.134,183.989 300.684 L 183.984 298.047 175.404 298.047 L 166.824 298.047 166.713 294.043 L 166.602 290.039 162.573 289.985 L 158.545 289.932 158.581 273.482 L 158.617 257.031 142.199 257.031 L 125.781 257.031 125.781 248.828 L 125.781 240.625 121.973 240.625 L 118.164 240.626 118.290 232.422 L 118.416 224.219 110.282 224.219 L 102.148 224.220 102.274 216.016 L 102.400 207.813 93.974 207.813 L 85.547 207.813 85.547 199.414 L 85.547 191.016 77.539 191.016 L 69.531 191.016 69.531 174.414 L 69.531 157.813 77.531 157.813 L 85.531 157.813 85.637 149.804 C 85.695 145.400,85.874 141.796,86.035 141.796 C 86.196 141.797,95.300 141.797,106.265 141.797 L 126.203 141.797 126.090 149.805 L 125.977 157.813 134.082 157.813 L 142.188 157.813 142.188 166.016 L 142.188 174.219 150.405 174.219 L 158.623 174.219 158.511 182.715 L 158.398 191.211 166.699 191.098 L 175.000 190.986 175.000 157.993 L 175.000 125.000 166.797 125.000 L 158.594 125.000 158.594 116.797 L 158.594 108.594 166.797 108.594 L 175.000 108.594 175.000 116.797 M87.800 158.486 C 88.502 158.573,89.557 158.571,90.144 158.482 C 90.731 158.393,90.156 158.322,88.867 158.324 C 87.578 158.326,87.098 158.399,87.800 158.486 M101.079 158.479 C 101.565 158.573,102.268 158.569,102.641 158.472 C 103.015 158.374,102.617 158.297,101.758 158.302 C 100.898 158.306,100.593 158.386,101.079 158.479 M275.488 158.483 C 276.079 158.572,277.046 158.572,277.637 158.483 C 278.228 158.393,277.744 158.320,276.563 158.320 C 275.381 158.320,274.897 158.393,275.488 158.483 M323.145 158.472 C 323.521 158.571,324.136 158.571,324.512 158.472 C 324.888 158.374,324.580 158.294,323.828 158.294 C 323.076 158.294,322.769 158.374,323.145 158.472 M324.788 175.000 C 324.788 183.701,324.839 187.261,324.902 182.910 C 324.965 178.560,324.965 171.440,324.902 167.090 C 324.839 162.739,324.788 166.299,324.788 175.000 M241.931 204.492 C 241.932 206.211,242.001 206.865,242.083 205.947 C 242.166 205.028,242.165 203.622,242.081 202.822 C 241.997 202.022,241.929 202.773,241.931 204.492 M282.972 230.664 C 282.972 234.316,283.031 235.863,283.103 234.101 C 283.175 232.339,283.175 229.351,283.104 227.461 C 283.032 225.570,282.973 227.012,282.972 230.664 M158.310 226.563 C 158.310 227.529,158.386 227.925,158.479 227.441 C 158.572 226.958,158.572 226.167,158.479 225.684 C 158.386 225.200,158.310 225.596,158.310 226.563 M241.958 233.984 C 241.958 237.744,242.016 239.282,242.088 237.402 C 242.159 235.522,242.159 232.446,242.088 230.566 C 242.016 228.687,241.958 230.225,241.958 233.984 M282.919 239.063 C 282.919 240.029,282.995 240.425,283.088 239.941 C 283.181 239.458,283.181 238.667,283.088 238.184 C 282.995 237.700,282.919 238.096,282.919 239.063 M129.204 240.511 C 129.690 240.604,130.393 240.601,130.766 240.503 C 131.140 240.405,130.742 240.329,129.883 240.333 C 129.023 240.337,128.718 240.417,129.204 240.511 M144.629 240.504 C 145.005 240.602,145.620 240.602,145.996 240.504 C 146.372 240.405,146.064 240.325,145.313 240.325 C 144.561 240.325,144.253 240.405,144.629 240.504 M153.809 240.510 C 154.292 240.603,155.083 240.603,155.566 240.510 C 156.050 240.417,155.654 240.341,154.688 240.341 C 153.721 240.341,153.325 240.417,153.809 240.510 M244.434 240.510 C 244.917 240.603,245.708 240.603,246.191 240.510 C 246.675 240.417,246.279 240.341,245.313 240.341 C 244.346 240.341,243.950 240.417,244.434 240.510 M248.535 240.514 C 249.126 240.604,250.093 240.604,250.684 240.514 C 251.274 240.425,250.791 240.351,249.609 240.351 C 248.428 240.351,247.944 240.425,248.535 240.514 M265.527 240.510 C 266.011 240.603,266.802 240.603,267.285 240.510 C 267.769 240.417,267.373 240.341,266.406 240.341 C 265.439 240.341,265.044 240.417,265.527 240.510 M272.954 240.511 C 273.440 240.604,274.143 240.601,274.516 240.503 C 274.890 240.405,274.492 240.329,273.633 240.333 C 272.773 240.337,272.468 240.417,272.954 240.511 M278.809 240.510 C 279.292 240.603,280.083 240.603,280.566 240.510 C 281.050 240.417,280.654 240.341,279.688 240.341 C 278.721 240.341,278.325 240.417,278.809 240.510 "
            stroke="none" fill="#69cff3" fill-rule="evenodd"></path>
        <path id="path1"
            d="M158.594 116.797 L 158.594 125.000 166.797 125.000 L 175.000 125.000 175.000 158.008 L 175.000 191.016 166.797 191.016 L 158.594 191.016 158.594 182.624 L 158.594 174.233 150.405 174.269 L 142.217 174.304 142.104 182.660 L 141.992 191.016 150.293 191.016 L 158.594 191.016 158.594 199.414 L 158.594 207.813 130.454 207.813 L 102.314 207.813 102.427 199.414 L 102.539 191.015 94.043 191.015 L 85.547 191.016 85.547 174.609 L 85.547 158.203 77.539 158.203 L 69.531 158.203 69.531 174.609 L 69.531 191.016 77.539 191.016 L 85.547 191.016 85.547 198.828 C 85.547 203.125,85.503 206.772,85.449 206.934 C 85.396 207.095,89.131 207.314,93.750 207.422 L 102.148 207.617 102.148 215.723 L 102.148 223.829 110.275 223.828 L 118.402 223.828 118.283 232.227 L 118.164 240.626 121.973 240.625 L 125.781 240.625 125.781 232.227 L 125.781 223.828 142.188 223.828 L 158.594 223.828 158.594 232.227 L 158.594 240.625 142.432 240.625 L 126.270 240.625 126.025 241.846 C 125.891 242.517,125.781 246.208,125.781 250.049 L 125.781 257.031 142.200 257.031 L 158.618 257.031 158.508 273.438 L 158.398 289.844 162.598 289.844 L 166.797 289.844 166.797 293.945 L 166.797 298.047 175.391 298.047 L 183.984 298.047 183.984 294.025 L 183.984 290.003 177.832 290.135 C 174.448 290.208,170.581 290.158,169.238 290.024 L 166.797 289.782 166.797 265.203 L 166.797 240.625 200.195 240.625 L 233.594 240.625 233.594 265.399 L 233.594 290.173 225.358 290.106 L 217.123 290.039 217.122 293.945 L 217.122 297.852 225.344 297.957 L 233.566 298.062 233.678 294.051 L 233.789 290.039 237.891 289.929 L 241.992 289.820 241.797 273.425 L 241.602 257.031 262.500 257.031 L 283.398 257.031 283.398 248.828 L 283.398 240.625 262.500 240.625 L 241.602 240.625 241.683 232.324 L 241.765 224.023 262.476 223.922 L 283.188 223.821 283.293 232.125 L 283.398 240.430 287.500 240.540 L 291.602 240.650 291.482 232.239 L 291.363 223.828 299.825 223.828 C 307.380 223.828,308.261 223.762,308.050 223.210 C 307.919 222.870,307.813 219.267,307.813 215.202 L 307.813 207.813 274.812 207.813 L 241.812 207.813 241.707 199.512 L 241.602 191.211 233.301 191.106 L 225.000 191.000 225.000 158.000 L 225.000 125.000 233.301 125.000 L 241.602 125.001 241.488 117.345 C 241.407 111.945,241.508 109.528,241.828 109.142 C 242.216 108.674,241.012 108.594,233.642 108.594 L 225.000 108.594 225.000 116.797 L 225.000 125.000 216.992 125.000 L 208.984 125.000 208.984 133.406 L 208.984 141.812 200.361 141.707 L 191.737 141.602 191.781 133.301 L 191.825 125.000 183.412 125.000 L 175.000 125.000 175.000 116.797 L 175.000 108.594 166.797 108.594 L 158.594 108.594 158.594 116.797 M85.547 149.805 L 85.547 157.813 105.664 157.813 L 125.781 157.813 125.781 149.805 L 125.781 141.797 105.664 141.797 L 85.547 141.797 85.547 149.805 M274.219 149.805 L 274.219 157.813 299.594 157.813 L 324.969 157.813 325.082 149.804 L 325.195 141.796 299.707 141.796 L 274.219 141.797 274.219 149.805 M216.956 174.316 L 216.992 190.625 199.895 190.625 L 182.797 190.625 182.821 174.463 C 182.834 165.574,182.957 158.189,183.093 158.053 C 183.230 157.916,190.897 157.850,200.131 157.906 L 216.920 158.008 216.956 174.316 M125.781 166.211 L 125.781 174.219 133.789 174.219 L 141.797 174.219 141.797 166.211 L 141.797 158.203 133.789 158.203 L 125.781 158.203 125.781 166.211 M257.813 166.211 L 257.813 174.219 266.016 174.219 L 274.219 174.219 274.219 166.211 L 274.219 158.203 266.016 158.203 L 257.813 158.203 257.813 166.211 M325.000 174.609 L 325.000 191.016 316.504 191.015 L 308.008 191.015 308.120 199.204 L 308.233 207.393 316.714 207.505 L 325.195 207.617 325.076 199.316 L 324.957 191.016 333.182 191.016 L 341.406 191.016 341.406 174.609 L 341.406 158.203 333.203 158.203 L 325.000 158.203 325.000 174.609 M241.406 182.617 L 241.406 191.016 249.512 191.016 L 257.617 191.016 257.505 182.618 L 257.392 174.219 249.399 174.219 L 241.406 174.219 241.406 182.617 M233.594 215.732 L 233.594 224.041 200.195 224.032 L 166.797 224.023 166.797 215.723 L 166.797 207.422 200.195 207.422 L 233.594 207.422 233.594 215.732 M183.989 300.879 C 183.991 302.222,184.102 303.979,184.235 304.785 L 184.477 306.250 200.637 306.250 L 216.797 306.250 216.797 302.344 L 216.797 298.438 200.391 298.438 L 183.984 298.438 183.989 300.879 "
            stroke="none" fill="#131e2b" fill-rule="evenodd"></path>
        <path id="path2"
            d="M85.804 158.076 C 85.663 158.218,85.547 165.687,85.547 174.674 L 85.547 191.016 94.043 191.015 L 102.539 191.015 102.427 199.414 L 102.314 207.813 130.356 207.812 L 158.398 207.812 158.398 199.512 L 158.398 191.211 150.098 191.106 C 142.532 191.009,141.796 190.940,141.791 190.324 C 141.788 189.953,141.771 186.177,141.753 181.934 L 141.721 174.219 133.751 174.219 L 125.781 174.219 125.781 166.287 L 125.781 158.355 106.348 158.388 C 95.659 158.407,86.722 158.286,86.487 158.121 C 86.253 157.955,85.945 157.935,85.804 158.076 M274.219 166.309 L 274.219 174.219 266.038 174.219 L 257.858 174.219 257.886 182.520 L 257.914 190.820 250.051 190.926 C 242.929 191.022,242.181 191.096,242.121 191.707 C 242.084 192.079,242.040 195.854,242.023 200.096 L 241.992 207.810 274.902 207.811 C 293.003 207.812,307.792 207.681,307.766 207.520 C 307.741 207.358,307.741 203.579,307.766 199.121 L 307.813 191.016 316.309 191.016 L 324.805 191.015 324.805 174.837 L 324.805 158.659 322.852 158.429 C 321.777 158.303,310.396 158.244,297.559 158.299 L 274.219 158.398 274.219 166.309 M126.336 232.227 L 126.378 240.430 142.290 240.430 C 152.597 240.430,158.225 240.292,158.264 240.039 C 158.298 239.824,158.342 236.133,158.362 231.836 L 158.398 224.023 142.346 224.023 L 126.294 224.023 126.336 232.227 M242.059 225.723 C 242.104 226.722,242.151 230.439,242.164 233.984 L 242.188 240.430 262.500 240.430 L 282.813 240.430 282.822 239.063 C 282.827 238.311,282.871 234.612,282.920 230.844 L 283.008 223.992 281.836 224.084 C 279.711 224.252,243.572 224.240,242.766 224.072 C 242.056 223.924,241.986 224.089,242.059 225.723 M166.797 265.234 L 166.797 289.844 175.391 289.844 L 183.984 289.844 183.984 294.148 L 183.984 298.453 200.488 298.430 L 216.992 298.407 216.992 294.223 L 216.992 290.039 225.293 289.934 L 233.594 289.828 233.594 265.227 L 233.594 240.625 200.195 240.625 L 166.797 240.625 166.797 265.234 "
            stroke="none" fill="#eed48e" fill-rule="evenodd"></path>
        <path id="path3"
            d="M241.570 116.992 C 241.570 121.289,241.627 123.100,241.697 121.017 C 241.767 118.934,241.768 115.418,241.698 113.204 C 241.628 110.991,241.571 112.695,241.570 116.992 M125.920 145.898 C 125.919 147.832,125.985 148.672,126.067 147.766 C 126.149 146.859,126.150 145.277,126.069 144.250 C 125.988 143.223,125.921 143.965,125.920 145.898 M183.068 158.105 C 182.969 158.267,190.588 158.398,200.000 158.398 C 209.412 158.398,217.031 158.267,216.932 158.105 C 216.832 157.944,209.213 157.813,200.000 157.813 C 190.787 157.813,183.168 157.944,183.068 158.105 M183.594 174.414 L 183.594 190.234 200.000 190.234 L 216.406 190.234 216.406 174.414 L 216.406 158.594 200.000 158.594 L 183.594 158.594 183.594 174.414 M182.991 174.805 C 182.991 183.613,183.042 187.273,183.105 182.936 C 183.168 178.600,183.168 171.393,183.105 166.921 C 183.042 162.448,182.991 165.996,182.991 174.805 M190.527 159.254 C 190.151 159.352,189.536 159.352,189.160 159.254 C 188.784 159.155,189.092 159.075,189.844 159.075 C 190.596 159.075,190.903 159.155,190.527 159.254 M257.588 182.422 C 257.588 187.041,257.644 188.931,257.713 186.621 C 257.782 184.312,257.782 180.532,257.713 178.223 C 257.644 175.913,257.588 177.803,257.588 182.422 M141.888 182.813 C 141.888 183.564,141.968 183.872,142.066 183.496 C 142.164 183.120,142.164 182.505,142.066 182.129 C 141.968 181.753,141.888 182.061,141.888 182.813 M199.469 184.105 C 199.618 184.253,199.369 184.375,198.916 184.375 C 198.463 184.375,197.984 184.199,197.851 183.983 C 197.585 183.553,199.026 183.661,199.469 184.105 M307.995 199.414 L 308.008 207.617 316.602 207.629 L 325.195 207.641 316.707 207.524 L 308.219 207.407 308.101 199.309 L 307.983 191.211 307.995 199.414 M89.746 207.713 C 91.948 207.783,95.552 207.783,97.754 207.713 C 99.956 207.644,98.154 207.587,93.750 207.587 C 89.346 207.587,87.544 207.644,89.746 207.713 M167.188 215.625 L 167.188 223.438 200.195 223.438 L 233.203 223.438 233.203 215.625 L 233.203 207.813 200.195 207.813 L 167.188 207.813 167.188 215.625 M194.531 208.500 C 194.209 208.616,193.857 208.841,193.750 209.000 C 193.643 209.159,193.353 209.071,193.105 208.804 C 192.755 208.426,192.927 208.316,193.887 208.305 C 194.563 208.296,194.854 208.384,194.531 208.500 M198.906 208.672 C 198.542 209.036,198.333 209.036,197.969 208.672 C 197.604 208.307,197.708 208.203,198.438 208.203 C 199.167 208.203,199.271 208.307,198.906 208.672 M202.146 208.589 C 202.279 208.805,202.134 208.879,201.818 208.758 C 201.506 208.638,201.133 208.731,200.989 208.964 C 200.701 209.431,200.000 209.152,200.000 208.571 C 200.000 208.081,201.842 208.097,202.146 208.589 M227.344 208.385 C 227.344 208.485,226.996 208.752,226.571 208.980 C 225.941 209.317,225.841 209.284,226.027 208.798 C 226.229 208.271,227.344 207.921,227.344 208.385 M229.980 208.472 C 229.604 208.571,228.989 208.571,228.613 208.472 C 228.237 208.374,228.545 208.294,229.297 208.294 C 230.049 208.294,230.356 208.374,229.980 208.472 M168.451 214.019 C 168.250 214.150,167.986 214.521,167.863 214.844 C 167.732 215.188,167.627 214.992,167.609 214.368 C 167.585 213.553,167.722 213.361,168.197 213.543 C 168.537 213.674,168.651 213.888,168.451 214.019 M232.756 221.649 C 232.301 222.030,230.436 222.245,230.654 221.891 C 230.792 221.667,231.247 221.484,231.664 221.484 C 232.081 221.484,232.436 221.265,232.453 220.996 C 232.476 220.631,232.535 220.637,232.689 221.021 C 232.802 221.302,232.832 221.585,232.756 221.649 M192.448 222.518 C 192.448 222.869,192.248 222.898,191.732 222.621 C 191.338 222.411,191.016 222.167,191.016 222.081 C 191.016 221.994,191.338 221.948,191.732 221.977 C 192.126 222.007,192.448 222.250,192.448 222.518 M219.922 222.289 C 219.469 222.600,219.602 222.668,220.508 222.591 C 221.152 222.536,221.933 222.308,222.243 222.085 C 222.652 221.791,222.731 221.805,222.533 222.135 C 222.383 222.385,222.482 222.679,222.751 222.787 C 223.021 222.896,222.012 222.996,220.508 223.010 C 217.973 223.034,217.845 222.996,218.750 222.493 C 219.896 221.858,220.774 221.705,219.922 222.289 M230.078 222.461 C 230.078 222.783,229.814 223.047,229.492 223.047 C 229.170 223.047,228.906 222.783,228.906 222.461 C 228.906 222.139,229.170 221.875,229.492 221.875 C 229.814 221.875,230.078 222.139,230.078 222.461 M125.950 233.008 C 125.950 238.164,126.006 240.219,126.073 237.575 C 126.141 234.931,126.141 230.712,126.073 228.200 C 126.005 225.688,125.949 227.852,125.950 233.008 M197.559 224.104 C 198.042 224.197,198.833 224.197,199.316 224.104 C 199.800 224.011,199.404 223.935,198.438 223.935 C 197.471 223.935,197.075 224.011,197.559 224.104 M202.237 224.110 C 202.931 224.196,204.161 224.198,204.972 224.113 C 205.782 224.029,205.215 223.958,203.711 223.956 C 202.207 223.955,201.544 224.024,202.237 224.110 M227.832 224.097 C 228.208 224.196,228.823 224.196,229.199 224.097 C 229.575 223.999,229.268 223.919,228.516 223.919 C 227.764 223.919,227.456 223.999,227.832 224.097 M170.801 290.131 C 171.821 290.211,173.491 290.211,174.512 290.131 C 175.532 290.050,174.697 289.985,172.656 289.985 C 170.615 289.985,169.780 290.050,170.801 290.131 M224.512 290.126 C 225.210 290.213,226.353 290.213,227.051 290.126 C 227.749 290.040,227.178 289.969,225.781 289.969 C 224.385 289.969,223.813 290.040,224.512 290.126 M229.204 290.120 C 229.690 290.213,230.393 290.210,230.766 290.112 C 231.140 290.014,230.742 289.938,229.883 289.942 C 229.023 289.947,228.718 290.027,229.204 290.120 M216.936 293.945 C 216.934 295.879,217.000 296.719,217.082 295.813 C 217.164 294.906,217.165 293.324,217.084 292.297 C 217.004 291.270,216.937 292.012,216.936 293.945 "
            stroke="none" fill="#1d7c73" fill-rule="evenodd"></path>
        <path id="path4"
            d="M125.902 155.273 C 125.904 156.563,125.977 157.043,126.064 156.341 C 126.151 155.639,126.149 154.584,126.060 153.997 C 125.971 153.410,125.900 153.984,125.902 155.273 M70.801 158.082 C 71.177 158.180,71.792 158.180,72.168 158.082 C 72.544 157.984,72.236 157.903,71.484 157.903 C 70.732 157.903,70.425 157.984,70.801 158.082 M75.897 158.103 C 77.572 158.177,80.208 158.176,81.756 158.102 C 83.304 158.028,81.934 157.968,78.711 157.969 C 75.488 157.969,74.222 158.030,75.897 158.103 M96.777 158.105 C 101.987 158.167,110.513 158.167,115.723 158.105 C 120.933 158.044,116.670 157.993,106.250 157.993 C 95.830 157.993,91.567 158.044,96.777 158.105 M130.001 158.104 C 132.215 158.174,135.730 158.174,137.814 158.103 C 139.897 158.033,138.086 157.976,133.789 157.977 C 129.492 157.977,127.788 158.034,130.001 158.104 M262.207 158.104 C 264.517 158.173,268.296 158.173,270.605 158.104 C 272.915 158.035,271.025 157.978,266.406 157.978 C 261.787 157.978,259.897 158.035,262.207 158.104 M281.959 158.105 C 285.894 158.169,292.222 158.169,296.021 158.105 C 299.821 158.041,296.602 157.989,288.867 157.989 C 281.133 157.989,278.024 158.041,281.959 158.105 M308.520 158.105 C 311.594 158.171,316.516 158.171,319.457 158.104 C 322.398 158.038,319.883 157.984,313.867 157.984 C 307.852 157.984,305.445 158.039,308.520 158.105 M331.548 158.089 C 332.033 158.182,332.737 158.179,333.110 158.081 C 333.483 157.983,333.086 157.907,332.227 157.911 C 331.367 157.915,331.062 157.995,331.548 158.089 M337.793 158.088 C 338.276 158.181,339.067 158.181,339.551 158.088 C 340.034 157.995,339.639 157.919,338.672 157.919 C 337.705 157.919,337.310 157.995,337.793 158.088 M183.203 174.414 L 183.203 190.625 200.000 190.625 L 216.797 190.625 216.797 174.414 L 216.797 158.203 200.000 158.203 L 183.203 158.203 183.203 174.414 M216.406 174.414 L 216.406 190.234 200.000 190.234 L 183.594 190.234 183.594 174.414 L 183.594 158.594 200.000 158.594 L 216.406 158.594 216.406 174.414 M189.160 159.254 C 189.536 159.352,190.151 159.352,190.527 159.254 C 190.903 159.155,190.596 159.075,189.844 159.075 C 189.092 159.075,188.784 159.155,189.160 159.254 M141.960 166.797 C 141.960 170.986,142.018 172.700,142.088 170.605 C 142.158 168.511,142.158 165.083,142.088 162.988 C 142.018 160.894,141.960 162.607,141.960 166.797 M141.936 178.320 C 141.934 180.254,142.000 181.094,142.082 180.188 C 142.164 179.281,142.165 177.699,142.084 176.672 C 142.004 175.645,141.937 176.387,141.936 178.320 M197.851 183.983 C 197.984 184.199,198.463 184.375,198.916 184.375 C 199.905 184.375,199.525 183.884,198.404 183.713 C 197.948 183.643,197.712 183.759,197.851 183.983 M141.888 187.500 C 141.888 188.252,141.968 188.560,142.066 188.184 C 142.164 187.808,142.164 187.192,142.066 186.816 C 141.968 186.440,141.888 186.748,141.888 187.500 M166.887 215.527 L 166.992 223.633 200.293 223.733 L 233.594 223.833 233.594 215.627 L 233.594 207.422 200.187 207.422 L 166.781 207.422 166.887 215.527 M307.977 215.234 C 307.977 219.639,308.034 221.440,308.104 219.238 C 308.173 217.036,308.173 213.433,308.104 211.230 C 308.034 209.028,307.977 210.830,307.977 215.234 M233.203 215.625 L 233.203 223.438 200.195 223.438 L 167.188 223.438 167.188 215.625 L 167.188 207.813 200.195 207.813 L 233.203 207.813 233.203 215.625 M193.105 208.804 C 193.353 209.071,193.643 209.159,193.750 209.000 C 193.857 208.841,194.209 208.616,194.531 208.500 C 194.854 208.384,194.563 208.296,193.887 208.305 C 192.927 208.316,192.755 208.426,193.105 208.804 M197.969 208.672 C 198.333 209.036,198.542 209.036,198.906 208.672 C 199.271 208.307,199.167 208.203,198.438 208.203 C 197.708 208.203,197.604 208.307,197.969 208.672 M200.000 208.571 C 200.000 209.152,200.701 209.431,200.989 208.964 C 201.133 208.731,201.506 208.638,201.818 208.758 C 202.134 208.879,202.279 208.805,202.146 208.589 C 201.842 208.097,200.000 208.081,200.000 208.571 M226.027 208.798 C 225.841 209.284,225.941 209.317,226.571 208.980 C 227.477 208.495,227.563 208.203,226.800 208.203 C 226.500 208.203,226.153 208.471,226.027 208.798 M228.613 208.472 C 228.989 208.571,229.604 208.571,229.980 208.472 C 230.356 208.374,230.049 208.294,229.297 208.294 C 228.545 208.294,228.237 208.374,228.613 208.472 M167.609 214.368 C 167.627 214.992,167.732 215.188,167.863 214.844 C 167.986 214.521,168.250 214.150,168.451 214.019 C 168.651 213.888,168.537 213.674,168.197 213.543 C 167.722 213.361,167.585 213.553,167.609 214.368 M232.453 220.996 C 232.436 221.265,232.081 221.484,231.664 221.484 C 231.247 221.484,230.792 221.667,230.654 221.891 C 230.490 222.157,230.784 222.205,231.510 222.031 C 232.885 221.701,232.942 221.652,232.689 221.021 C 232.535 220.637,232.476 220.631,232.453 220.996 M191.016 222.081 C 191.016 222.167,191.338 222.411,191.732 222.621 C 192.248 222.898,192.448 222.869,192.448 222.518 C 192.448 222.250,192.126 222.007,191.732 221.977 C 191.338 221.948,191.016 221.994,191.016 222.081 M218.750 222.493 C 217.845 222.996,217.973 223.034,220.508 223.010 C 222.012 222.996,223.021 222.896,222.751 222.787 C 222.482 222.679,222.383 222.385,222.533 222.135 C 222.731 221.805,222.652 221.791,222.243 222.085 C 221.933 222.308,221.152 222.536,220.508 222.591 C 219.602 222.668,219.469 222.600,219.922 222.289 C 220.774 221.705,219.896 221.858,218.750 222.493 M228.906 222.461 C 228.906 222.783,229.170 223.047,229.492 223.047 C 229.814 223.047,230.078 222.783,230.078 222.461 C 230.078 222.139,229.814 221.875,229.492 221.875 C 229.170 221.875,228.906 222.139,228.906 222.461 M105.957 224.120 C 108.267 224.189,112.046 224.189,114.355 224.120 C 116.665 224.051,114.775 223.994,110.156 223.994 C 105.537 223.994,103.647 224.051,105.957 224.120 M129.590 224.114 C 130.503 224.196,131.997 224.196,132.910 224.114 C 133.823 224.032,133.076 223.965,131.250 223.965 C 129.424 223.965,128.677 224.032,129.590 224.114 M140.942 224.120 C 144.232 224.186,149.505 224.186,152.661 224.120 C 155.817 224.055,153.125 224.001,146.680 224.001 C 140.234 224.001,137.652 224.055,140.942 224.120 M252.441 224.121 C 257.759 224.182,266.460 224.182,271.777 224.121 C 277.095 224.059,272.744 224.009,262.109 224.009 C 251.475 224.009,247.124 224.059,252.441 224.121 M296.213 224.120 C 298.534 224.189,302.225 224.189,304.416 224.119 C 306.606 224.050,304.707 223.993,300.195 223.993 C 295.684 223.994,293.891 224.051,296.213 224.120 M216.903 300.000 C 216.903 300.967,216.979 301.362,217.073 300.879 C 217.166 300.396,217.166 299.604,217.073 299.121 C 216.979 298.638,216.903 299.033,216.903 300.000 M216.895 303.320 C 216.900 304.180,216.980 304.485,217.073 303.999 C 217.167 303.513,217.163 302.810,217.065 302.437 C 216.967 302.063,216.891 302.461,216.895 303.320 "
            stroke="none" fill="#1c837f" fill-rule="evenodd"></path>
    </g>
</svg>